<?xml version="1.0" encoding="UTF-8" standalone="no"?>
<svg width="120px" height="120px" viewBox="0 0 1537 1537" version="1.1" xmlns="http://www.w3.org/2000/svg" xmlns:xlink="http://www.w3.org/1999/xlink">
    <!-- Generator: Sketch 3.8.3 (29802) - http://www.bohemiancoding.com/sketch -->
    <title>Slice 1</title>
    <desc>Created with Sketch.</desc>
    <defs></defs>
    <g id="Page-1" stroke="none" stroke-width="1" fill="none" fill-rule="evenodd">
        <path d="M1165,1012 L1267,910 C1279.66667,897.333333 1286,882.333333 1286,865 C1286,847.666667 1279.66667,832.666667 1267,820 L813,366 C800.333333,353.333333 785.333333,347 768,347 C750.666667,347 735.666667,353.333333 723,366 L269,820 C256.333333,832.666667 250,847.666667 250,865 C250,882.333333 256.333333,897.333333 269,910 L371,1012 C383.666667,1024.66667 398.666667,1031 416,1031 C433.333333,1031 448.333333,1024.66667 461,1012 L768,705 L1075,1012 C1087.66667,1024.66667 1102.66667,1031 1120,1031 C1137.33333,1031 1152.33333,1024.66667 1165,1012 L1165,1012 Z M1536,769 C1536,908.333333 1501.66667,1036.83333 1433,1154.5 C1364.33333,1272.16667 1271.16667,1365.33333 1153.5,1434 C1035.83333,1502.66667 907.333333,1537 768,1537 C628.666667,1537 500.166667,1502.66667 382.5,1434 C264.833333,1365.33333 171.666667,1272.16667 103,1154.5 C34.3333333,1036.83333 0,908.333333 0,769 C0,629.666667 34.3333333,501.166667 103,383.5 C171.666667,265.833333 264.833333,172.666667 382.5,104 C500.166667,35.3333333 628.666667,1 768,1 C907.333333,1 1035.83333,35.3333333 1153.5,104 C1271.16667,172.666667 1364.33333,265.833333 1433,383.5 C1501.66667,501.166667 1536,629.666667 1536,769 L1536,769 Z" id="Shape" fill="#FFFFFF" fill-opacity="0.5" transform="translate(768.000000, 769.000000) rotate(-180.000000) translate(-768.000000, -769.000000) "></path>
    </g>
</svg>